<?xml version="1.0" standalone="no"?>
<!DOCTYPE svg PUBLIC "-//W3C//DTD SVG 20010904//EN"
 "http://www.w3.org/TR/2001/REC-SVG-20010904/DTD/svg10.dtd">
<svg version="1.0" xmlns="http://www.w3.org/2000/svg"
 width="1024.000000pt" height="1024.000000pt" viewBox="0 0 1024.000000 1024.000000"
 preserveAspectRatio="xMidYMid meet">
<metadata>
Created by potrace 1.16, written by Peter Selinger 2001-2019
</metadata>
<g transform="translate(0.000000,1024.000000) scale(0.100000,-0.100000)"
fill="#000000" stroke="none">
<path d="M7720 9144 l-233 -235 -26 20 c-75 61 -108 82 -160 103 l-56 22
-1605 -3 c-1056 -2 -1741 1 -2001 9 -421 12 -473 9 -555 -31 -58 -28 -121 -91
-132 -131 -5 -21 -18 -38 -35 -46 -17 -8 -27 -21 -27 -35 0 -12 -2 -1502 -5
-3312 -2 -1809 -7 -3418 -11 -3574 l-7 -283 38 -35 c21 -19 49 -39 62 -44 58
-22 464 -28 2213 -36 2119 -9 2069 -9 2169 7 86 15 125 33 140 67 7 16 11
1090 11 3617 0 1976 3 3607 6 3624 5 24 58 85 206 237 111 113 206 205 212
205 7 0 20 16 29 35 19 39 21 55 9 55 -4 0 -113 -106 -242 -236z m-445 -133
c89 -39 130 -102 93 -139 -15 -15 -32 -688 -24 -1010 3 -135 1 -220 -5 -217
-5 4 -9 34 -10 68 -1 58 -2 60 -11 27 -5 -20 -12 -374 -15 -830 -3 -437 -9
-799 -13 -804 -5 -5 -15 7 -23 25 -8 19 -30 68 -50 109 -19 41 -44 95 -54 120
-57 131 -229 370 -372 519 -34 35 -60 65 -57 68 2 2 17 -2 33 -10 16 -9 45
-18 65 -22 23 -4 43 -17 57 -36 12 -16 26 -27 31 -24 16 10 87 -84 104 -138 3
-9 16 -21 29 -26 14 -5 28 -18 32 -28 7 -17 8 -17 15 2 5 11 9 39 9 61 1 48
-23 70 -80 76 -47 4 -53 35 -7 40 22 2 34 9 36 21 5 25 -26 57 -53 57 -17 0
-24 7 -28 26 -5 29 15 89 26 77 4 -3 7 0 7 8 0 35 -14 58 -41 69 -16 7 -66 44
-112 82 -88 74 -133 101 -184 113 -27 5 -33 11 -33 33 -1 33 -49 66 -259 178
-49 27 -77 20 -87 -21 -8 -34 -31 -52 -46 -37 -7 7 -31 12 -54 12 -42 0 -128
31 -140 52 -4 6 4 21 19 33 15 11 27 30 27 42 0 29 -61 73 -102 73 -19 0 -38
4 -44 9 -22 23 -286 84 -330 77 -18 -2 -36 -1 -40 3 -31 28 -234 42 -277 20
-12 -6 -32 -21 -44 -32 l-23 -20 -11 31 c-10 28 -15 32 -49 32 -32 0 -39 -4
-50 -30 l-13 -31 -18 31 c-23 37 -57 39 -96 6 -26 -23 -27 -26 -17 -65 6 -23
8 -43 4 -46 -4 -2 -31 20 -59 50 -61 64 -91 70 -140 29 -36 -30 -39 -59 -11
-113 15 -31 30 -43 75 -61 31 -13 53 -26 48 -31 -4 -4 -30 -13 -58 -20 -27 -6
-66 -17 -85 -25 -19 -7 -56 -15 -82 -19 l-46 -6 18 35 17 35 -36 72 c-43 86
-57 97 -100 79 -23 -9 -34 -21 -38 -43 l-6 -30 -19 23 c-16 19 -23 21 -50 14
-17 -5 -40 -22 -52 -37 l-21 -28 23 -40 c12 -21 18 -39 12 -39 -6 0 -33 16
-61 35 -61 42 -75 43 -123 10 -20 -14 -43 -25 -49 -25 -7 0 -17 -4 -22 -9 -6
-5 -41 -26 -80 -46 -91 -49 -176 -113 -182 -136 -3 -12 -14 -19 -29 -19 -32 0
-94 -39 -94 -59 0 -9 5 -22 12 -29 16 -16 4 -26 -48 -40 -53 -15 -198 -112
-202 -136 -7 -33 7 -61 53 -108 41 -43 50 -48 90 -48 25 0 45 -5 45 -10 0 -6
-20 -32 -43 -58 -59 -64 -142 -174 -222 -296 -45 -67 -195 -363 -195 -383 0
-7 -7 -13 -15 -13 -19 0 -19 37 1 115 8 33 15 67 15 75 0 8 5 25 11 37 6 12 7
30 3 40 -11 25 -13 65 -19 305 -3 115 -7 212 -10 216 -8 14 -15 653 -8 697 4
22 4 60 0 85 -43 264 -76 575 -84 797 -4 106 -11 190 -15 187 -13 -8 -11 -951
2 -959 7 -5 10 -434 7 -1526 -2 -1204 0 -1521 10 -1530 14 -15 16 -115 2 -124
-13 -8 -13 -55 0 -55 13 0 13 -37 0 -45 -13 -8 -13 -48 0 -61 6 -6 10 -437 10
-1196 1 -742 4 -1190 10 -1193 6 -4 10 -20 10 -36 0 -18 4 -28 10 -24 13 8 13
66 0 100 -20 52 25 728 56 850 14 56 23 106 27 148 2 20 27 23 27 3 0 -20 76
-32 95 -16 8 7 15 18 15 25 0 14 73 27 78 13 2 -4 15 -8 28 -8 14 0 22 4 19
10 -3 6 3 10 13 10 11 0 23 -7 26 -16 5 -14 18 -16 78 -12 40 3 74 11 76 17 2
7 30 11 70 10 55 0 63 -2 42 -10 -23 -9 -23 -11 -7 -20 9 -6 22 -7 28 -4 17
11 442 6 453 -5 13 -13 46 -13 46 0 0 6 9 10 20 10 11 0 20 -4 20 -10 0 -6 33
-10 80 -10 47 0 80 4 80 10 0 6 7 10 16 10 8 0 12 -5 9 -10 -4 -6 13 -10 44
-10 27 0 51 -4 53 -10 7 -20 469 -50 728 -46 80 1 218 3 308 4 106 1 161 6
157 12 -4 6 12 10 39 10 25 0 46 -4 46 -8 0 -12 169 -17 450 -15 129 0 222 -3
205 -7 l-30 -8 33 -1 c17 0 32 4 32 9 0 6 9 10 20 10 11 0 20 4 20 8 0 5 25 7
55 4 46 -4 55 -2 55 12 0 10 8 16 21 16 18 0 19 -2 9 -15 -10 -13 -9 -15 8
-15 11 0 27 -7 36 -15 17 -17 30 -20 21 -5 -4 6 9 10 32 9 34 -1 35 -2 13 -9
-14 -4 -18 -9 -10 -9 8 -1 33 -4 54 -8 30 -5 37 -3 31 7 -5 8 -2 11 11 7 58
-15 145 -29 151 -23 13 12 21 215 22 525 1 172 4 317 7 322 2 5 6 148 8 318 2
170 7 315 11 321 19 32 27 -22 30 -204 1 -117 7 -201 13 -208 6 -7 12 -26 15
-43 2 -16 5 40 5 125 1 85 -3 188 -8 228 -7 56 -5 119 10 270 11 108 20 201
20 207 0 6 3 6 9 0 6 -6 6 -595 1 -1565 -5 -855 -9 -1556 -10 -1557 0 -1 -7
-9 -16 -17 -11 -12 -33 -16 -77 -14 -52 1 -55 2 -18 5 28 3 52 13 69 28 14 13
24 26 22 28 -3 2 -99 0 -215 -5 -115 -5 -1013 -7 -1995 -5 -1856 3 -1845 3
-1877 43 -15 21 -25 2 -22 -41 4 -43 -6 -53 -30 -31 -28 25 -30 129 -42 1661
-5 737 -14 1608 -19 1935 -5 327 -12 1104 -14 1725 -3 622 -8 1249 -11 1395
-4 146 -8 334 -10 419 -1 85 -1 161 2 168 8 20 72 55 127 70 41 10 432 12
2056 10 l2005 -4 50 -22z m-4328 -443 c-3 -8 -6 -5 -6 6 -1 11 2 17 5 13 3 -3
4 -12 1 -19z m0 -240 c-1 -40 -3 -8 -3 72 0 80 2 112 3 73 2 -40 2 -106 0
-145z m-2 -2273 c-1 -1083 -4 -2008 -5 -2055 -3 -81 -3 -82 -10 -35 -10 63
-12 3904 -3 4080 l7 130 8 -75 c3 -41 5 -961 3 -2045z m2495 1595 c0 -5 -11
-10 -24 -10 -14 0 -28 5 -31 10 -4 6 7 10 24 10 17 0 31 -4 31 -10z m120 -120
c12 -8 9 -10 -13 -10 -16 0 -26 4 -22 10 8 12 16 12 35 0z m1777 -32 c-3 -7
-5 -2 -5 12 0 14 2 19 5 13 2 -7 2 -19 0 -25z m-1586 -4 c17 -8 29 -18 26 -20
-6 -7 -88 16 -101 28 -17 15 44 9 75 -8z m1588 -746 c-2 -398 -6 -748 -9 -778
l-6 -55 -8 45 c-10 59 -3 1470 8 1493 4 9 10 17 13 17 3 0 4 -325 2 -722z
m-1439 702 c0 -13 -20 -13 -40 0 -12 8 -9 10 13 10 15 0 27 -4 27 -10z m-1655
-66 c15 -16 39 -28 64 -31 46 -6 45 -17 -6 -38 -49 -21 -53 -19 -47 13 5 23 1
32 -21 46 -27 18 -29 18 -66 -2 -22 -12 -39 -17 -39 -12 0 9 66 49 83 50 4 0
19 -12 32 -26z m2201 -49 c24 -18 7 -19 -26 0 -16 9 -19 14 -9 15 8 0 24 -7
35 -15z m-221 -17 c7 -7 2 -8 -15 -3 -14 4 -29 12 -35 17 -7 7 -2 8 15 3 14
-4 30 -12 35 -17z m-700 -22 c55 -9 115 -20 134 -26 18 -5 36 -9 40 -8 35 4
48 -27 26 -68 -8 -16 -15 -39 -15 -51 0 -13 -4 -23 -10 -23 -5 0 -10 19 -10
43 0 31 -5 45 -19 54 -23 14 -44 -4 -39 -33 2 -9 -3 -19 -11 -22 -8 -3 -11 0
-7 7 4 6 2 11 -3 11 -23 0 -10 -28 17 -38 48 -16 112 -82 112 -114 0 -34 -13
-35 -71 -5 -24 13 -75 36 -114 51 -38 15 -77 32 -86 36 -30 15 -86 22 -93 11
-4 -5 -13 -8 -20 -5 -7 3 -21 -3 -31 -12 -9 -10 -20 -13 -23 -8 -8 11 -63 11
-80 0 -7 -4 -12 -2 -12 6 -1 8 -6 6 -15 -6 -11 -14 -21 -17 -47 -12 -18 4 -44
7 -56 8 -17 0 -27 8 -34 29 -13 38 -39 37 -72 -2 -25 -29 -28 -30 -45 -15 -22
20 -38 20 -49 0 -12 -21 -32 -10 -32 17 0 27 -27 35 -49 15 -10 -9 -35 -16
-57 -16 -31 0 -46 -7 -68 -29 -16 -16 -34 -27 -41 -25 -7 3 -16 1 -20 -5 -9
-16 -45 -13 -45 4 0 7 8 19 18 24 14 8 10 10 -20 11 -21 0 -38 -4 -38 -10 0
-6 -26 -10 -58 -10 -46 0 -60 -4 -70 -20 -7 -11 -21 -20 -31 -20 -24 0 -42
-22 -32 -39 6 -9 14 -10 27 -3 27 14 214 42 281 42 70 0 178 -17 218 -35 17
-7 66 -25 110 -40 115 -40 181 -77 284 -161 50 -41 93 -74 96 -74 3 0 47 32
99 70 94 70 144 88 162 58 9 -14 -25 -43 -153 -136 -58 -41 -93 -73 -93 -84 0
-28 -12 -22 -65 33 -91 93 -240 187 -345 218 -25 7 -61 19 -80 26 -86 33 -255
44 -366 24 -62 -11 -214 -59 -274 -87 -111 -51 -274 -189 -339 -287 -14 -22
-34 -49 -44 -60 -24 -26 -112 -210 -126 -261 -6 -22 -20 -49 -31 -59 -20 -18
-20 -17 -20 8 0 14 5 38 11 54 6 15 13 51 14 78 3 52 41 168 53 161 4 -2 8 6
8 19 1 13 20 49 43 81 36 50 39 59 26 67 -11 6 -22 3 -36 -9 -18 -16 -18 -18
-1 -30 15 -12 14 -13 -16 -14 -20 0 -35 -6 -38 -15 -4 -8 -10 -15 -16 -15 -16
0 82 118 162 195 149 144 319 266 485 348 50 24 106 53 125 64 43 24 182 71
230 77 19 3 49 10 65 17 36 14 41 15 125 29 36 6 70 12 75 14 27 11 429 -3
520 -18z m410 -147 c-8 -46 1 -49 67 -21 29 13 60 18 98 15 106 -6 104 -16
-15 -63 -44 -17 -100 -42 -124 -56 -24 -13 -50 -24 -57 -24 -20 0 -17 43 5 71
15 19 16 29 8 49 -14 32 -15 63 -2 72 18 13 26 -4 20 -43z m574 1 c25 -13 36
-41 13 -33 -23 8 -42 24 -42 34 0 12 7 11 29 -1z m-2684 -160 c-27 -27 -54
-50 -60 -50 -5 0 -11 18 -11 39 l-2 39 52 9 c28 6 55 11 61 12 5 0 -13 -21
-40 -49z m2263 -138 c39 -20 121 -84 164 -126 34 -34 33 -62 -1 -58 -27 3
-152 87 -215 144 -34 31 -38 40 -26 48 22 14 41 12 78 -8z m-631 -292 c21 -8
36 -25 57 -68 15 -31 34 -67 42 -79 l14 -23 57 30 c60 32 113 39 133 15 13
-15 6 -35 -13 -35 -12 0 -89 -38 -161 -79 -42 -24 -56 -18 -56 24 0 11 -6 29
-14 40 -7 11 -27 45 -43 75 -16 30 -37 67 -47 83 -20 29 -15 32 31 17z m-1727
-15 c0 -8 -7 -15 -15 -15 -16 0 -20 12 -8 23 11 12 23 8 23 -8z m2530 -54
c164 -37 311 -112 436 -223 95 -85 135 -131 180 -208 20 -36 41 -67 45 -70 11
-8 50 -100 54 -130 2 -14 8 -40 14 -58 9 -29 8 -33 -7 -30 -10 2 -32 34 -52
73 -110 220 -250 384 -400 467 -25 14 -61 34 -80 46 -39 23 -137 55 -220 72
-35 8 -118 11 -217 9 -148 -4 -160 -3 -152 13 5 9 21 26 35 37 24 19 40 21
153 21 87 0 152 -6 211 -19z m-1815 -105 c126 -48 267 -127 323 -180 38 -35
85 -119 80 -144 -2 -12 -18 -1 -58 39 -85 86 -202 158 -320 198 -36 13 -81 30
-100 39 -24 12 -69 18 -143 20 -91 3 -112 1 -135 -14 -38 -25 -58 -25 -56 0 4
80 40 98 184 92 96 -3 115 -8 225 -50z m669 23 c17 -14 26 -30 26 -50 0 -32
-19 -39 -40 -14 -18 22 -206 21 -239 -1 -28 -20 -46 -6 -37 30 10 42 49 55
162 56 88 0 105 -3 128 -21z m298 -198 c3 -3 -27 -44 -68 -91 -41 -47 -74 -88
-74 -93 0 -4 -20 -39 -45 -77 -25 -39 -48 -77 -51 -85 -3 -8 -10 -13 -14 -10
-26 16 80 229 162 326 33 39 46 48 62 43 12 -3 24 -9 28 -13z m1171 -291 c44
0 77 -28 77 -65 0 -28 -16 -31 -44 -10 -25 19 -206 21 -223 4 -13 -13 -43 -5
-43 10 0 5 9 19 19 32 14 18 33 25 77 30 33 4 68 5 79 3 11 -2 37 -4 58 -4z
m-953 -15 c33 -17 51 -47 86 -144 13 -35 27 -67 32 -70 5 -3 30 -50 57 -104
48 -97 90 -147 124 -147 9 0 32 -13 51 -30 l35 -29 -59 -1 c-48 0 -65 5 -93
26 -18 14 -33 33 -33 42 0 9 -21 58 -46 107 -26 50 -68 133 -95 186 -29 57
-57 100 -71 107 -13 7 -74 13 -138 14 l-115 3 27 28 c26 26 32 27 118 27 62 0
100 -5 120 -15z m600 0 c27 -14 48 -50 36 -62 -3 -4 -17 -1 -31 5 -41 19 -214
16 -236 -4 -16 -14 -18 -14 -28 4 -8 16 -6 25 14 46 23 25 29 26 120 26 65 0
105 -5 125 -15z m-2263 -142 c50 -109 67 -138 122 -204 62 -72 184 -169 214
-169 10 0 31 8 45 19 44 30 223 117 277 134 87 27 200 40 317 35 126 -5 171
-19 176 -57 4 -22 2 -23 -40 -17 -156 22 -273 18 -418 -16 -68 -16 -265 -114
-309 -153 l-39 -35 -78 51 c-137 91 -241 215 -295 352 -46 114 -21 166 28 60z
m3052 -113 l0 -25 -15 28 c-9 16 -12 36 -9 45 6 15 8 15 15 -3 5 -11 9 -31 9
-45z m-3265 28 c9 -12 16 -34 16 -48 -1 -23 -2 -24 -14 -7 -18 23 -53 22 -61
-3 -9 -28 -33 -25 -41 5 -15 61 65 103 100 53z m3467 -151 c7 -104 4 -369 -6
-437 -11 -81 -28 -150 -37 -150 -5 0 -6 -5 -2 -12 5 -7 3 -8 -6 -3 -9 5 -10 2
-5 -14 4 -14 -1 -31 -15 -51 -12 -17 -19 -30 -15 -30 3 0 3 -6 -2 -12 -4 -7
-8 -19 -9 -26 -2 -8 -6 -21 -10 -30 -4 -9 -8 -20 -9 -24 -2 -5 -4 -10 -5 -13
-4 -7 -7 -23 -9 -37 -1 -9 -4 -9 -11 2 -5 9 -5 19 2 27 6 7 7 13 2 13 -4 0 -3
5 4 12 7 7 12 22 12 35 0 13 9 39 19 59 11 20 17 43 14 52 -5 12 -2 14 12 9
16 -7 16 -5 4 9 -11 14 -11 18 5 30 15 11 17 16 7 28 -7 9 -9 21 -5 28 9 14
12 82 17 413 2 110 7 208 12 218 15 35 29 -2 36 -96z m-1849 -73 c81 -41 166
-116 213 -189 17 -27 59 -80 93 -117 34 -38 70 -85 81 -105 19 -39 37 -103 28
-103 -5 0 -51 70 -97 147 -65 110 -225 257 -343 316 -84 42 -94 51 -77 72 17
21 21 20 102 -21z m-1901 -30 c57 -25 113 -48 124 -51 34 -10 55 -35 55 -65 0
-15 -5 -28 -10 -28 -6 0 -46 16 -88 36 -116 54 -224 96 -249 96 -25 1 -31 26
-11 46 22 22 75 12 179 -34z m2889 -9 c30 -32 17 -37 -76 -33 l-69 3 40 28
c49 33 75 34 105 2z m-2404 -35 c16 -6 23 -14 18 -19 -15 -14 -87 -53 -114
-61 -14 -4 -33 -11 -42 -15 -15 -6 -18 -2 -18 23 0 34 18 52 69 68 48 16 55
16 87 4z m2823 -130 c-32 -152 -181 -334 -342 -419 -157 -83 -337 -122 -465
-102 -118 19 -162 33 -162 52 0 30 23 39 66 26 63 -19 308 -14 369 7 191 68
268 120 385 256 59 68 130 190 139 237 0 4 5 3 10 -2 6 -6 6 -27 0 -55z
m-2599 -67 c0 -3 -11 -21 -25 -39 -14 -18 -25 -35 -25 -38 0 -2 -14 -27 -31
-55 l-32 -50 -46 31 c-52 35 -111 88 -111 100 0 17 64 7 106 -18 l44 -26 31
51 c26 42 37 51 60 51 16 0 29 -3 29 -7z m-649 -43 c31 0 -29 -53 -203 -179
-32 -23 -44 0 -25 47 9 22 13 42 10 46 -4 3 1 6 10 6 9 0 43 17 74 38 63 41
91 52 111 46 8 -2 18 -4 23 -4z m1876 -145 c12 -14 20 -32 17 -40 -7 -17 -20
-19 -29 -5 -4 6 -134 10 -358 10 -351 0 -352 0 -422 -25 -85 -31 -95 -38 -172
-114 -34 -33 -65 -61 -68 -61 -10 0 -5 42 9 68 18 35 103 115 146 137 109 56
151 61 545 57 l310 -3 22 -24z m-2017 -200 c5 -14 9 -29 8 -33 -1 -4 4 -20 10
-35 7 -16 12 -33 12 -38 0 -5 4 -17 9 -27 39 -78 55 -108 96 -187 39 -75 103
-175 125 -195 3 -3 24 -30 46 -60 61 -81 181 -209 238 -255 28 -22 61 -50 74
-62 13 -12 61 -49 105 -81 223 -161 539 -293 797 -331 353 -52 344 -52 675 0
194 31 445 116 585 200 36 21 88 43 115 48 40 7 56 17 80 47 35 44 43 51 114
107 29 23 65 52 80 64 33 27 91 42 91 23 0 -7 -16 -27 -36 -44 -19 -17 -56
-49 -82 -72 -69 -59 -208 -157 -277 -195 -33 -17 -72 -40 -87 -51 -14 -10 -29
-18 -32 -18 -3 0 -25 -8 -49 -19 -90 -39 -244 -99 -282 -109 -130 -35 -450
-82 -560 -82 -115 0 -421 45 -560 82 -22 5 -74 24 -115 40 -41 17 -84 34 -95
38 -53 21 -122 51 -135 60 -8 5 -49 28 -90 50 -219 118 -478 354 -636 580 -32
46 -76 118 -97 160 -21 41 -47 89 -58 106 -22 37 -49 119 -49 152 0 12 -3 22
-8 22 -9 0 -41 72 -49 111 -4 23 -2 29 11 29 9 0 21 -11 26 -25z m3677 -203
c-2 -4 -28 -56 -57 -117 -56 -115 -149 -263 -203 -325 -18 -20 -42 -50 -53
-66 l-22 -29 -33 31 c-19 18 -50 42 -70 55 -54 36 -138 103 -138 112 -1 10 77
9 84 -2 11 -18 136 -101 152 -101 20 0 76 64 148 170 32 47 61 87 65 90 4 3
27 45 49 95 23 49 47 92 53 96 13 8 30 2 25 -9z m-309 -39 c2 -16 -1 -21 -11
-17 -11 4 -200 -69 -344 -133 -15 -6 -18 34 -4 55 4 7 66 38 137 67 99 42 139
54 174 52 38 -2 45 -5 48 -24z m-758 -3 c131 -36 210 -72 227 -104 23 -45 4
-50 -63 -18 -32 16 -75 34 -94 41 -54 20 -82 32 -113 47 -16 8 -36 14 -45 14
-25 0 -46 16 -38 29 10 16 42 14 126 -9z m-596 -31 c14 -11 26 -27 26 -34 0
-20 -20 -29 -33 -16 -8 8 -119 11 -368 11 -242 0 -360 3 -364 11 -4 5 1 19 11
30 16 18 34 19 359 19 331 0 343 -1 369 -21z m-1164 -272 c25 -39 85 -112 133
-160 80 -80 99 -94 201 -142 139 -65 211 -79 372 -73 95 4 134 10 193 31 185
67 315 172 441 359 26 39 41 42 33 5 -22 -101 -182 -288 -302 -352 -78 -43
-198 -92 -246 -101 -54 -11 -268 -11 -330 0 -27 5 -99 32 -160 61 -177 83
-300 203 -375 365 -13 28 -22 80 -13 80 4 0 28 -33 53 -73z m1890 8 c0 -19
-221 -184 -247 -185 -22 0 -25 21 -6 42 10 12 56 50 103 84 63 47 94 63 118
64 17 0 32 -2 32 -5z m-2512 -285 c28 -17 52 -31 52 -33 0 -1 -26 -1 -58 1
-52 3 -62 0 -111 -33 -54 -37 -81 -40 -81 -7 0 26 19 49 65 77 52 32 69 31
133 -5z m3372 -46 c33 -31 50 -55 50 -70 0 -13 -2 -24 -5 -24 -15 0 -63 31
-85 55 -13 14 -40 36 -58 47 -25 15 -30 23 -20 29 32 21 69 9 118 -37z m-190
-89 c0 -8 -73 -36 -79 -29 -10 9 31 34 56 34 13 0 23 -2 23 -5z m-2882 -142
c-10 -2 -26 -2 -35 0 -10 3 -2 5 17 5 19 0 27 -2 18 -5z m-118 -37 c0 -11 -19
-15 -25 -6 -3 5 1 10 9 10 9 0 16 -2 16 -4z m205 -156 c3 -5 2 -10 -4 -10 -5
0 -13 5 -16 10 -3 6 -2 10 4 10 5 0 13 -4 16 -10z m2491 -15 c-11 -8 -24 -15
-30 -15 -5 0 -1 7 10 15 10 8 24 14 29 14 6 0 1 -6 -9 -14z m-3559 -197 c-2
-24 -4 -5 -4 42 0 47 2 66 4 43 2 -24 2 -62 0 -85z m3268 3 c10 -17 -11 -21
-31 -6 -18 14 -18 14 3 15 12 0 24 -4 28 -9z m-1182 -158 c-7 -2 -19 -2 -25 0
-7 3 -2 5 12 5 14 0 19 -2 13 -5z m-2086 -1045 c-1 -57 -3 -11 -3 102 0 113 2
159 3 103 2 -57 2 -149 0 -205z m0 -290 c-2 -35 -3 -7 -3 62 0 69 1 97 3 63 2
-35 2 -91 0 -125z m280 -144 c-3 -3 -12 -4 -19 -1 -8 3 -5 6 6 6 11 1 17 -2
13 -5z m-249 -22 c6 -18 -15 -14 -22 4 -4 10 -1 14 6 12 6 -2 14 -10 16 -16z"/>
<path d="M3040 8935 c0 -3 9 -15 20 -27 11 -12 20 -28 20 -35 0 -7 5 -13 10
-13 6 0 10 -13 10 -30 0 -39 16 -39 24 1 10 49 8 58 -19 84 -21 22 -65 35 -65
20z"/>
<path d="M7264 3355 c0 -181 2 -257 3 -168 2 89 2 237 0 330 -1 92 -3 20 -3
-162z"/>
<path d="M7261 2994 c0 -11 3 -14 6 -6 3 7 2 16 -1 19 -3 4 -6 -2 -5 -13z"/>
<path d="M7145 2900 c3 -5 8 -10 11 -10 2 0 4 5 4 10 0 6 -5 10 -11 10 -5 0
-7 -4 -4 -10z"/>
<path d="M5518 7210 c-16 -18 -16 -19 4 -25 24 -8 43 8 35 29 -8 20 -18 19
-39 -4z"/>
<path d="M4640 7110 c0 -5 5 -10 10 -10 6 0 10 5 10 10 0 6 -4 10 -10 10 -5 0
-10 -4 -10 -10z"/>
<path d="M4314 6991 c0 -11 5 -17 13 -14 7 3 13 11 13 19 0 8 -6 14 -13 14 -7
0 -13 -8 -13 -19z"/>
<path d="M4275 6970 c-3 -5 1 -10 9 -10 9 0 16 5 16 10 0 6 -4 10 -9 10 -6 0
-13 -4 -16 -10z"/>
<path d="M4225 6950 c-8 -13 5 -13 25 0 13 8 13 10 -2 10 -9 0 -20 -4 -23 -10z"/>
<path d="M2520 9273 c0 -5 36 -50 80 -101 44 -51 83 -99 87 -107 5 -7 36 -43
71 -78 34 -36 62 -71 62 -79 0 -17 41 -58 58 -58 20 0 13 20 -18 51 -16 16
-29 32 -28 35 2 10 -26 47 -67 90 -22 22 -82 89 -133 147 -85 97 -112 121
-112 100z"/>
<path d="M7930 8991 c0 -90 3 -161 7 -158 10 11 13 289 3 306 -6 10 -10 -45
-10 -148z"/>
<path d="M7928 7577 c-1 -675 -2 -1239 -4 -1254 -1 -16 -3 -1233 -4 -2705 -2
-1473 -6 -2678 -9 -2677 -3 1 -39 36 -78 79 -77 83 -94 92 -40 20 84 -112 108
-148 128 -183 11 -22 22 -37 25 -34 6 6 4 7741 -2 7867 -3 58 -8 107 -10 109
-2 2 -5 -548 -6 -1222z"/>
<path d="M4008 1392 c-818 -2 -848 -3 -857 -21 -6 -10 -34 -36 -63 -57 -95
-67 -222 -179 -343 -304 -66 -67 -156 -148 -200 -180 -44 -32 -88 -66 -98 -75
-17 -15 -20 -15 -40 2 -12 9 -30 27 -39 38 -14 15 -18 17 -18 5 0 -26 59 -100
80 -100 6 0 10 -13 10 -30 0 -16 5 -30 10 -30 6 0 10 9 10 20 0 22 3 24 28 11
60 -31 102 -31 2651 -31 2329 0 2567 1 2612 16 53 18 56 28 9 37 -16 4 -30 12
-30 19 0 18 -97 124 -275 303 -193 193 -204 203 -305 260 -47 27 -92 57 -101
67 -9 9 -29 22 -45 29 -43 17 -732 29 -1494 26 -360 -1 -1036 -3 -1502 -5z"/>
<path d="M2440 1010 c-30 -27 -60 -50 -67 -50 -22 0 -43 -31 -43 -63 l1 -32
22 29 c12 15 43 49 69 73 40 39 85 94 76 93 -2 0 -28 -23 -58 -50z"/>
</g>
</svg>
