<?xml version="1.0" standalone="no"?>
<!DOCTYPE svg PUBLIC "-//W3C//DTD SVG 20010904//EN"
 "http://www.w3.org/TR/2001/REC-SVG-20010904/DTD/svg10.dtd">
<svg version="1.0" xmlns="http://www.w3.org/2000/svg"
 width="1024.000000pt" height="1024.000000pt" viewBox="0 0 1024.000000 1024.000000"
 preserveAspectRatio="xMidYMid meet">
<metadata>
Created by potrace 1.16, written by Peter Selinger 2001-2019
</metadata>
<g transform="translate(0.000000,1024.000000) scale(0.100000,-0.100000)"
fill="#000000" stroke="none">
<path d="M0 5120 l0 -5120 5120 0 5120 0 0 5120 0 5120 -5120 0 -5120 0 0
-5120z m6028 4093 c6 -15 12 -33 12 -40 0 -7 4 -21 9 -31 38 -73 49 -309 22
-467 -22 -131 -83 -310 -162 -482 -16 -34 -29 -66 -29 -70 0 -5 -13 -35 -30
-68 -16 -33 -30 -68 -30 -77 0 -9 -4 -20 -10 -23 -5 -3 -10 -17 -10 -30 0 -13
-4 -25 -8 -27 -7 -2 -55 -147 -77 -228 -8 -30 -23 -140 -31 -230 -9 -88 30
-341 65 -425 55 -132 163 -305 235 -374 57 -56 63 -45 47 78 -15 117 -13 201
5 286 8 39 18 82 21 98 7 34 23 35 23 1 0 -33 20 -116 31 -128 5 -6 9 -20 9
-33 0 -12 5 -35 11 -50 6 -15 15 -37 19 -48 4 -11 15 -36 23 -55 9 -19 18 -48
22 -65 7 -29 23 -70 51 -129 8 -16 14 -36 14 -45 0 -9 14 -40 30 -70 17 -30
30 -59 30 -65 0 -5 11 -26 23 -45 13 -20 48 -74 77 -121 30 -47 68 -107 85
-135 44 -69 183 -323 234 -425 23 -47 51 -102 63 -124 11 -21 29 -70 39 -108
11 -39 29 -89 39 -111 11 -22 20 -47 20 -54 0 -7 5 -13 10 -13 6 0 10 -18 10
-39 0 -22 5 -43 10 -46 6 -3 10 -19 10 -34 0 -15 5 -32 11 -38 6 -6 8 -17 4
-23 -4 -7 -26 24 -54 79 -74 144 -155 250 -306 400 -87 86 -126 131 -104 118
48 -27 74 -18 65 24 -8 44 -147 219 -237 301 -82 75 -191 159 -197 153 -2 -2
-12 5 -23 16 -10 10 -28 19 -38 19 -11 0 -21 5 -23 12 -2 6 -12 12 -21 14 -18
2 -15 -8 11 -38 21 -25 6 -23 -75 11 -95 39 -248 88 -330 106 -119 26 -411 40
-522 26 -309 -40 -489 -93 -731 -217 -80 -40 -146 -69 -148 -64 -6 17 65 74
178 141 115 69 199 106 349 155 108 35 284 73 349 75 20 1 29 3 20 6 -10 2
-18 8 -18 13 0 4 -13 13 -30 19 -30 10 -41 31 -17 31 8 0 7 3 -3 10 -27 17
-360 -11 -360 -31 0 -4 -53 -24 -117 -45 -395 -128 -820 -466 -1022 -812 -108
-185 -217 -475 -240 -637 -7 -44 -16 -100 -21 -125 -5 -25 -12 -62 -15 -82 -3
-23 -11 -38 -20 -38 -11 0 -13 -19 -8 -107 3 -60 10 -114 16 -121 8 -10 7 -16
-2 -22 -8 -4 -11 -12 -7 -18 3 -6 8 -35 11 -65 2 -30 11 -74 18 -98 8 -24 25
-82 37 -129 29 -111 74 -240 110 -315 15 -33 31 -67 34 -75 3 -8 19 -37 36
-65 17 -27 33 -58 37 -67 3 -10 9 -18 14 -18 5 0 9 -7 9 -16 0 -9 14 -33 30
-54 17 -21 30 -42 30 -47 0 -5 8 -18 18 -29 9 -10 39 -50 66 -89 27 -38 135
-155 240 -260 105 -104 202 -206 216 -225 37 -55 138 -168 217 -246 40 -39 73
-74 73 -77 0 -10 -93 29 -168 70 -118 65 -315 199 -382 261 -14 13 -50 43 -80
67 -59 48 -247 244 -320 335 -25 31 -57 69 -72 85 -16 17 -28 34 -28 38 0 5
-14 29 -31 53 -35 52 -120 227 -143 296 -66 200 -86 321 -86 526 0 171 4 217
32 397 40 261 201 752 288 885 84 126 162 306 207 472 35 132 40 158 58 296
26 193 3 397 -64 581 -64 175 -195 377 -260 402 -18 7 -21 13 -13 21 16 16
120 -14 192 -55 82 -46 126 -84 192 -167 130 -162 183 -343 208 -710 11 -160
18 -218 29 -224 8 -5 37 8 116 53 111 64 206 107 310 141 131 42 125 39 125
76 0 19 -4 53 -10 76 -5 24 -14 68 -20 98 -5 30 -17 91 -26 135 -85 436 -96
712 -39 946 23 95 73 221 93 233 7 4 9 -19 5 -67 -10 -128 21 -232 109 -363
51 -78 96 -120 110 -106 5 5 11 72 13 148 4 187 34 318 108 475 103 216 239
360 527 559 319 221 456 359 541 546 16 35 33 64 37 64 4 0 13 -12 20 -27z
m-784 -3099 c9 -3 16 -10 16 -14 0 -4 -41 -38 -90 -75 -97 -72 -153 -130 -200
-207 -26 -41 -28 -49 -14 -55 15 -5 68 35 88 67 29 46 142 141 266 224 66 43
98 45 196 12 74 -25 75 -27 62 -101 -2 -14 3 -21 19 -23 17 -3 25 5 37 32 8
20 22 36 31 36 16 0 96 -38 105 -50 3 -3 39 -12 80 -19 41 -7 89 -16 106 -22
17 -5 40 -9 52 -9 13 0 22 -6 22 -15 0 -11 7 -14 26 -9 18 5 29 1 38 -11 8
-11 25 -18 44 -17 18 0 35 -5 39 -12 5 -7 23 -21 41 -30 17 -9 32 -20 32 -24
0 -5 16 -14 35 -22 34 -14 77 -50 59 -50 -5 0 -34 9 -64 20 -105 39 -199 70
-214 70 -11 0 -16 -10 -16 -32 0 -66 -73 -159 -102 -130 -9 9 -7 17 9 34 40
44 41 101 2 113 -10 4 -19 15 -19 25 0 20 -19 30 -60 30 -16 0 -30 7 -34 15
-3 8 -14 15 -25 15 -15 0 -38 -27 -81 -90 -61 -90 -66 -110 -29 -110 10 0 19
-4 19 -10 0 -5 -25 -10 -55 -10 -66 0 -69 11 -26 73 15 23 38 61 50 85 l21 42
-30 0 c-26 0 -30 -4 -30 -25 0 -34 -22 -74 -54 -102 -48 -42 -61 -24 -25 34
27 43 20 59 -28 68 -74 14 -117 8 -187 -24 -54 -25 -71 -29 -78 -19 -6 10 -13
8 -28 -10 -17 -21 -17 -25 -4 -40 59 -66 65 -76 47 -89 -27 -21 -61 -15 -79
12 -9 14 -19 25 -23 25 -4 0 -21 -20 -39 -45 -31 -45 -62 -59 -62 -29 0 8 18
42 40 74 22 32 40 61 40 63 0 11 -70 -13 -135 -46 -38 -19 -94 -40 -124 -46
-40 -9 -66 -22 -97 -51 -44 -41 -80 -50 -102 -28 -14 14 -16 32 -3 23 12 -7
51 33 51 52 0 7 16 30 35 52 37 41 44 65 21 74 -12 5 -13 13 -5 39 15 55 11
96 -11 110 -11 7 -20 20 -20 30 0 37 -17 24 -34 -25 -10 -29 -42 -92 -71 -142
-73 -125 -85 -150 -85 -180 0 -54 -26 -93 -85 -126 -34 -19 -67 -48 -85 -74
-22 -32 -41 -47 -77 -59 -50 -17 -148 -22 -157 -7 -3 5 1 22 9 37 14 27 14 29
-7 32 -54 9 -93 -54 -49 -78 11 -5 33 -34 50 -62 16 -29 40 -59 51 -66 18 -11
21 -11 15 0 -3 7 3 2 14 -11 13 -14 21 -37 21 -58 0 -63 -72 -203 -104 -203
-8 0 -16 -10 -20 -22 -16 -62 4 -114 44 -114 22 1 25 -4 28 -39 2 -31 -4 -51
-29 -88 -40 -61 -136 -140 -161 -134 -10 3 -18 1 -18 -3 0 -12 -49 13 -54 27
-3 7 28 53 69 104 46 56 75 100 75 114 0 25 -50 106 -78 127 -37 28 -43 44
-30 74 6 16 19 38 29 49 9 11 29 43 44 72 l27 52 -32 50 c-20 30 -38 47 -46
44 -7 -2 -11 -10 -8 -18 5 -13 -9 -41 -66 -133 -42 -67 -61 -136 -47 -177 5
-16 28 -49 50 -72 46 -48 46 -73 -1 -121 -15 -16 -35 -46 -46 -68 -10 -21 -27
-55 -37 -74 -19 -38 -19 -46 -1 -100 15 -44 42 -62 111 -71 38 -6 62 -15 83
-36 52 -49 52 -52 9 -185 -22 -68 -45 -144 -52 -170 -6 -27 -15 -48 -19 -48
-14 0 -87 93 -138 176 -126 202 -192 432 -207 712 -6 95 -11 135 -21 139 -7 2
-16 18 -19 34 -10 46 -25 44 -25 -3 0 -24 -7 -65 -15 -92 -10 -33 -15 -94 -15
-185 0 -92 -3 -131 -10 -121 -7 10 -10 -9 -10 -63 0 -50 -4 -76 -10 -72 -11 7
-13 -24 -4 -49 3 -9 12 -16 20 -16 8 0 14 -7 14 -16 0 -11 -5 -14 -16 -10 -15
6 -16 -1 -10 -56 3 -35 13 -88 22 -118 8 -30 22 -80 30 -110 29 -112 112 -289
191 -407 34 -52 58 -91 53 -88 -35 22 -200 318 -229 410 -7 22 -16 49 -21 60
-14 35 -29 97 -52 210 -19 93 -22 144 -23 335 0 274 21 409 105 654 37 110 52
134 96 152 20 8 43 29 52 46 36 67 151 234 175 257 26 23 27 24 47 6 24 -22
25 -21 151 63 237 158 468 251 703 282 74 9 378 12 400 4z m251 -292 c-6 -4
-21 -26 -33 -50 -19 -34 -21 -46 -12 -57 7 -8 19 -15 26 -15 8 0 14 -4 14 -8
0 -18 -26 -32 -60 -32 -67 0 -79 42 -28 104 32 39 88 79 97 70 3 -3 1 -8 -4
-12z m400 -22 c3 -5 -5 -25 -19 -43 -32 -41 -33 -71 -5 -91 27 -18 19 -46 -13
-46 -75 0 -92 79 -32 148 35 41 57 52 69 32z m315 -121 c0 -6 -11 -24 -25 -41
-14 -16 -25 -39 -25 -51 0 -38 20 -97 33 -97 13 0 37 44 37 67 0 7 6 13 13 13
14 -1 47 -24 47 -34 0 -20 -93 -126 -111 -126 -21 0 -24 12 -9 41 9 15 7 19
-7 19 -68 2 -86 134 -26 194 26 26 73 36 73 15z m93 -17 c33 -34 37 -82 7 -82
-11 0 -20 6 -20 13 0 7 -13 26 -30 42 -16 16 -30 35 -30 42 0 23 45 14 73 -15z
m137 -127 c8 -10 3 -41 -19 -118 -17 -58 -31 -121 -31 -141 0 -41 -17 -47 -45
-16 -15 17 -16 24 -7 46 17 35 15 75 -4 102 -13 19 -22 22 -45 17 -51 -11 -34
12 43 60 27 17 48 37 48 46 0 9 3 18 6 21 8 9 42 -2 54 -17z m798 -170 c6 -27
17 -79 25 -115 26 -115 36 -240 38 -465 3 -264 -11 -357 -79 -540 -29 -79
-114 -261 -149 -320 -78 -131 -134 -227 -153 -265 -13 -25 -31 -56 -42 -70
-11 -14 -31 -44 -46 -66 -88 -135 -387 -441 -562 -575 -25 -18 -70 -56 -100
-83 -47 -42 -105 -83 -215 -151 -16 -10 -68 -38 -115 -63 -47 -24 -100 -53
-118 -64 -18 -11 -35 -18 -38 -15 -5 5 80 89 126 125 27 21 123 70 180 92 41
16 193 115 265 173 230 185 408 430 510 702 35 92 45 109 61 107 63 -11 66
-10 101 58 42 82 88 226 114 355 23 115 35 353 22 465 -10 92 -3 147 31 270
48 168 80 305 97 415 6 44 14 84 17 88 8 16 20 -7 30 -58z m-1382 -3 c208 -56
355 -178 453 -377 27 -55 56 -124 66 -152 9 -29 20 -53 24 -53 4 0 8 -8 8 -17
-1 -10 1 -43 2 -73 3 -45 5 -50 10 -25 8 39 17 23 26 -46 7 -59 -12 -192 -42
-284 -31 -96 -101 -231 -164 -315 -82 -111 -227 -255 -320 -317 -387 -262
-902 -333 -1339 -187 -91 31 -257 125 -301 171 -42 44 -42 45 -9 21 47 -33 66
-39 79 -24 8 10 4 16 -15 25 -14 6 -30 8 -36 5 -6 -4 -8 -2 -5 3 4 6 -12 23
-36 38 -23 16 -75 55 -116 88 l-74 60 7 61 c12 120 75 311 105 321 10 3 34 -1
54 -10 43 -18 118 -20 135 -3 7 7 12 31 12 55 0 81 35 129 129 178 25 13 46
16 81 11 68 -9 105 2 153 44 32 29 57 41 100 49 57 10 147 50 181 80 26 23 56
86 64 133 10 60 27 51 30 -17 7 -117 -28 -255 -100 -400 -56 -113 -125 -202
-312 -405 -91 -98 -165 -199 -208 -285 -17 -33 -37 -65 -45 -71 -13 -9 -11
-13 11 -27 34 -23 56 -22 56 2 0 21 46 111 90 176 26 37 218 261 283 330 50
52 163 230 195 306 50 120 92 305 92 403 0 55 12 48 59 -38 31 -57 46 -146 46
-281 0 -180 -23 -258 -147 -515 -44 -91 -83 -174 -88 -185 -4 -11 -13 -33 -20
-50 -15 -35 -26 -191 -16 -229 4 -17 13 -26 26 -26 18 0 20 7 20 89 0 50 4 92
9 95 4 3 11 21 14 40 6 39 15 59 100 236 86 179 93 197 127 328 29 108 31 127
28 242 -5 145 -27 221 -96 339 -74 124 -170 196 -180 136 -2 -11 -12 -29 -21
-40 -10 -11 -25 -47 -34 -79 -19 -69 -52 -108 -121 -143 -43 -22 -50 -23 -63
-10 -21 21 -1 80 32 95 41 19 76 83 82 151 5 57 8 63 42 83 20 13 53 38 75 58
30 27 50 36 89 40 69 7 78 24 47 90 -28 60 -26 63 60 80 30 7 70 15 87 20 18
5 34 5 36 2 2 -4 10 -36 16 -72 17 -85 34 -129 83 -214 47 -79 85 -123 98
-110 5 5 4 34 -2 64 -10 57 -5 129 11 158 8 15 10 15 14 2 3 -8 19 -62 37
-120 39 -126 129 -312 231 -476 41 -67 131 -239 156 -300 21 -51 42 -145 59
-267 4 -26 11 -46 17 -44 11 3 47 112 47 144 0 12 4 24 9 27 4 3 11 28 15 56
4 28 12 63 18 78 l11 27 8 -30 c5 -16 13 -51 17 -78 l7 -47 24 16 c20 14 22
22 17 57 -11 68 -46 165 -62 171 -20 8 -51 -10 -57 -31 -14 -54 -27 -111 -29
-132 -5 -43 -25 -33 -43 21 -26 81 -95 218 -187 373 -132 220 -190 350 -233
521 -16 60 -34 116 -42 124 -35 38 -92 -45 -93 -132 0 -21 -4 -38 -10 -38 -26
0 -73 152 -68 220 3 44 4 45 43 52 72 12 295 0 371 -20z m688 -7 l37 -16 -3
-67 c-2 -64 -5 -70 -51 -129 -48 -62 -77 -79 -77 -45 0 9 9 28 20 42 11 14 20
31 20 38 0 6 4 12 8 12 15 0 32 50 32 95 0 25 -4 45 -9 45 -18 0 -69 -72 -76
-106 -4 -25 -11 -34 -26 -34 -19 0 -20 4 -14 43 9 50 28 89 57 117 26 24 35
25 82 5z m93 -161 c6 -16 -9 -112 -23 -148 -6 -15 -4 -17 15 -11 16 5 27 0 41
-17 16 -19 19 -36 17 -97 -1 -49 -6 -76 -14 -79 -10 -3 -13 16 -13 72 0 58 -3
76 -14 76 -17 0 -26 -22 -26 -66 0 -22 -5 -34 -14 -34 -17 0 -26 -31 -26 -97
0 -39 -4 -53 -14 -53 -40 0 -29 139 19 253 7 16 5 16 -19 6 -17 -8 -26 -20
-26 -36 0 -26 -21 -31 -40 -9 -19 24 -7 58 25 76 42 23 66 70 67 129 1 43 4
51 20 51 10 0 21 -7 25 -16z m67 -416 c9 -12 16 -35 16 -50 0 -37 -18 -81 -30
-73 -6 4 -7 13 -1 23 5 9 5 26 1 37 -7 18 -9 18 -19 -8 -6 -16 -11 -43 -11
-60 0 -36 -21 -102 -38 -119 -8 -8 -18 -6 -38 7 -25 16 -26 20 -20 73 7 59 17
79 35 68 6 -4 8 -26 4 -56 -4 -31 -2 -50 4 -50 13 0 23 49 23 115 0 55 25 115
47 115 6 0 19 -10 27 -22z m1106 -18 c30 -21 60 -84 60 -125 0 -31 -12 -31
-49 -4 -51 38 -120 2 -155 -81 -17 -42 -66 -255 -66 -290 0 -20 -2 -22 -10
-10 -5 8 -10 56 -10 105 0 163 60 366 122 409 31 22 74 20 108 -4z m-3060 -10
c0 -5 -4 -10 -10 -10 -5 0 -10 5 -10 10 0 6 5 10 10 10 6 0 10 -4 10 -10z
m-2149 -52 c22 -24 39 -46 39 -50 0 -5 7 -8 14 -8 11 0 16 14 18 50 2 40 6 48
18 40 18 -11 29 -205 12 -222 -8 -8 -25 3 -60 40 -56 59 -92 68 -116 30 -8
-13 -27 -61 -43 -108 -24 -73 -28 -100 -27 -189 1 -70 5 -106 14 -111 6 -4 10
-16 8 -26 -6 -27 -43 55 -62 140 -24 100 -18 215 14 281 5 11 19 46 31 79 39
107 78 122 140 54z m5279 -128 c0 -5 -2 -10 -4 -10 -3 0 -8 5 -11 10 -3 6 -1
10 4 10 6 0 11 -4 11 -10z m24 -91 c16 -84 2 -197 -40 -309 -31 -85 -63 -131
-107 -155 -32 -17 -38 -17 -73 -4 -28 11 -43 26 -60 59 -21 40 -33 130 -18
130 3 0 17 -13 30 -30 31 -37 84 -49 118 -27 40 27 93 158 117 295 7 39 16 72
20 72 4 0 9 -14 13 -31z m-5158 -238 c3 -20 12 -61 19 -91 20 -91 6 -100 -65
-44 -29 23 -52 34 -70 32 -61 -7 -104 -242 -65 -364 30 -96 -4 -83 -51 19 -26
57 -29 72 -30 195 -1 115 1 136 16 150 9 9 20 29 23 43 9 35 45 79 65 79 9 0
37 -16 61 -35 67 -54 81 -47 60 28 -12 45 -2 69 17 42 8 -10 17 -35 20 -54z
m98 -433 c14 -29 31 -74 38 -101 15 -59 16 -57 -121 -128 -57 -29 -106 -59
-109 -67 -3 -8 2 -27 12 -42 17 -31 22 -70 7 -70 -15 0 -45 49 -69 110 -33 87
-34 97 -17 123 8 13 12 27 8 30 -3 4 7 4 24 1 24 -5 50 4 118 37 96 47 91 36
69 132 -11 45 13 31 40 -25z m4936 -78 c-18 -82 -90 -273 -107 -287 -17 -13
-66 9 -246 109 -91 50 -101 51 -129 13 -14 -19 -8 45 8 87 26 67 34 72 80 49
177 -91 289 -140 297 -132 13 13 77 198 77 221 0 9 6 22 13 29 18 19 22 -22 7
-89z m-4260 61 c0 -4 16 -26 36 -49 20 -23 40 -58 45 -77 6 -19 14 -35 19 -35
4 0 6 -9 3 -20 -3 -11 -8 -20 -10 -20 -11 0 -57 66 -85 120 -7 14 -15 27 -19
30 -3 3 -9 19 -12 37 -5 26 -3 31 8 26 8 -3 15 -8 15 -12z m602 -445 c31 -47
38 -64 30 -77 -17 -27 33 -58 76 -47 32 8 32 9 16 34 -9 13 -14 27 -11 31 8 7
148 -64 163 -83 6 -8 27 -14 46 -14 19 0 38 -3 42 -7 4 -5 47 -9 94 -11 144
-4 142 -3 125 -29 -9 -13 -34 -28 -57 -34 -54 -15 -242 -6 -326 16 -101 26
-274 120 -345 188 -19 18 -18 18 19 -2 31 -16 43 -18 54 -9 11 10 9 14 -13 25
-14 8 -30 11 -35 8 -6 -4 -9 -2 -8 3 2 5 -8 19 -22 30 -24 19 -24 21 -7 39 21
24 21 36 1 74 -28 54 111 -65 158 -135z m-1182 28 c32 -18 60 -39 60 -48 0 -3
-11 -6 -24 -6 -34 0 -77 -18 -103 -42 -18 -17 -23 -33 -23 -72 0 -65 41 -198
79 -258 33 -52 33 -55 -7 -34 -42 22 -78 66 -108 129 -57 127 -67 216 -31 287
33 66 88 82 157 44z m4515 -4 c63 -39 78 -89 51 -175 l-12 -40 -11 30 c-18 52
-60 85 -108 85 -54 0 -111 -42 -180 -134 -40 -53 -51 -63 -53 -47 -9 57 135
247 213 282 51 24 61 23 100 -1z m-4370 -122 c72 -82 125 -203 125 -285 0 -71
-60 -143 -120 -143 -26 0 -100 37 -100 50 0 6 11 10 25 10 15 0 40 15 66 40
l41 39 -3 73 c-4 73 -32 150 -81 220 -20 28 -23 48 -9 48 5 0 30 -24 56 -52z
m2891 -43 c20 -52 -218 -281 -366 -353 -150 -73 -514 -157 -534 -123 -5 7 1
11 15 11 12 0 30 9 39 20 18 21 194 75 210 65 5 -3 41 13 82 35 40 22 84 40
97 40 48 0 193 101 347 240 49 44 92 80 97 80 4 0 10 -7 13 -15z m1524 -111
c0 -3 -17 -43 -38 -88 -92 -194 -279 -281 -338 -157 -23 46 -24 135 -4 155 14
14 18 11 39 -33 27 -59 72 -88 111 -73 43 16 127 89 171 147 37 49 59 67 59
49z m-4044 -320 c157 -147 199 -218 155 -258 -23 -21 -81 -17 -132 10 -28 14
-29 13 -29 -7 0 -26 56 -186 76 -216 14 -22 13 -23 -12 -23 -41 0 -90 36 -107
78 -8 20 -22 64 -32 97 -9 33 -21 73 -26 89 -5 16 -9 37 -9 47 0 17 4 16 48
-6 66 -33 130 -43 138 -21 3 9 4 26 1 39 -8 31 -96 147 -112 147 -8 0 -38 -28
-67 -62 -128 -148 -123 -144 -155 -128 -31 17 -43 29 -43 47 0 10 101 132 167
201 17 17 16 32 -2 56 -19 25 -9 40 16 23 10 -8 67 -59 125 -113z m3386 -50
c-2 -10 -19 -54 -37 -96 -18 -42 -30 -79 -27 -82 9 -9 91 -7 131 3 20 6 65 17
101 26 36 9 84 30 108 46 48 34 53 24 19 -36 -34 -61 -96 -93 -222 -115 -60
-11 -126 -20 -147 -20 -48 0 -49 -14 -3 -86 19 -30 35 -57 35 -60 0 -13 -54
-74 -65 -74 -11 0 -37 35 -139 192 -34 51 -41 55 -70 33 -22 -16 -46 -20 -46
-7 0 18 116 112 138 112 7 0 26 -20 44 -44 17 -25 36 -42 43 -39 13 5 55 92
55 114 0 18 41 132 53 147 14 18 33 9 29 -14z m-2901 -211 c21 -16 39 -31 39
-35 0 -3 -38 -84 -85 -179 -47 -95 -85 -175 -85 -179 0 -9 91 -67 158 -101 34
-17 62 -34 62 -37 0 -13 -96 11 -150 38 -71 36 -166 96 -175 110 -3 5 9 38 28
72 65 118 123 233 134 265 9 25 9 34 -3 44 -45 38 23 39 77 2z m409 -278 c40
-25 253 -115 273 -115 22 0 115 -63 130 -89 12 -21 13 -36 6 -75 -17 -92 -48
-117 -166 -135 -113 -17 -176 -14 -235 12 -101 45 -158 116 -158 196 0 75 34
110 121 128 30 6 31 7 13 20 -10 8 -36 21 -56 30 -36 14 -47 31 -31 46 14 15
65 6 103 -18z m1733 0 c-6 -17 -38 -32 -139 -67 -35 -12 -64 -27 -64 -32 1 -6
7 -29 15 -51 8 -22 15 -48 15 -59 0 -16 5 -18 42 -12 38 6 121 31 171 51 13 5
16 3 12 -8 -7 -17 -87 -61 -130 -71 -16 -4 -40 -14 -52 -21 -20 -14 -21 -16
-7 -62 18 -59 12 -77 -39 -130 -49 -51 -61 -54 -52 -13 4 17 -2 66 -15 122
-38 160 -52 202 -73 226 -20 21 -20 23 -3 35 10 7 39 19 65 26 25 7 53 15 61
18 61 24 177 62 187 62 7 1 10 -6 6 -14z m-473 -175 c50 -25 64 -40 85 -87 24
-53 -11 -125 -79 -160 -27 -14 -28 -14 -20 3 5 11 9 42 9 69 0 40 -6 58 -28
87 -35 46 -70 59 -176 64 -92 4 -106 9 -76 27 36 21 68 26 155 23 65 -2 96 -9
130 -26z m-350 -42 c0 -2 -7 -25 -15 -51 -35 -116 49 -187 223 -187 39 0 72
-4 72 -9 0 -5 -17 -17 -37 -27 -29 -14 -60 -19 -128 -19 -78 0 -98 4 -146 27
-82 41 -109 109 -74 191 16 38 59 76 88 77 9 0 17 -1 17 -2z m-623 -662 c135
-68 270 -96 463 -96 201 0 382 39 498 107 71 41 72 14 2 -51 -111 -102 -166
-133 -331 -185 -42 -13 -274 -15 -315 -2 -16 5 -55 16 -86 26 -31 9 -84 33
-118 53 -70 43 -190 149 -190 169 0 18 1 18 77 -21z"/>
<path d="M5840 8550 c-14 -16 -31 -30 -38 -30 -7 0 -35 -22 -62 -50 -27 -27
-54 -50 -60 -50 -6 0 -29 -18 -50 -40 -21 -22 -43 -40 -49 -40 -16 0 -181
-167 -181 -183 0 -7 -9 -19 -20 -27 -11 -8 -20 -21 -20 -29 0 -7 -10 -22 -22
-32 -11 -11 -18 -22 -14 -26 4 -4 11 -1 16 7 5 8 12 11 16 7 4 -4 -3 -15 -14
-26 -12 -10 -22 -21 -22 -25 0 -12 98 -6 103 7 4 9 8 8 16 -3 10 -13 12 -13
21 0 9 13 11 13 20 0 9 -13 11 -13 20 0 9 13 11 13 20 0 9 -13 11 -13 20 0 9
13 11 13 20 0 9 -13 11 -13 20 0 8 13 11 13 19 1 7 -11 14 -9 35 12 14 14 26
33 26 42 0 8 5 15 10 15 6 0 10 7 10 16 0 9 14 29 30 44 17 15 30 34 30 42 0
7 9 20 20 28 11 8 20 22 20 32 0 10 5 18 10 18 6 0 10 9 10 20 0 11 5 20 10
20 6 0 10 8 10 18 0 10 9 24 20 32 12 8 20 26 20 42 0 15 5 28 10 28 6 0 10
14 10 30 0 17 5 30 10 30 15 0 12 70 -4 86 -18 18 -17 19 -46 -16z m-420 -440
c0 -5 -4 -10 -10 -10 -5 0 -10 5 -10 10 0 6 5 10 10 10 6 0 10 -4 10 -10z
m-20 -40 c0 -5 -4 -10 -10 -10 -5 0 -10 5 -10 10 0 6 5 10 10 10 6 0 10 -4 10
-10z m40 -20 c0 -5 -4 -10 -10 -10 -5 0 -10 5 -10 10 0 6 5 10 10 10 6 0 10
-4 10 -10z m40 0 c0 -5 -4 -10 -10 -10 -5 0 -10 5 -10 10 0 6 5 10 10 10 6 0
10 -4 10 -10z m40 0 c0 -5 -4 -10 -10 -10 -5 0 -10 5 -10 10 0 6 5 10 10 10 6
0 10 -4 10 -10z m40 0 c0 -5 -4 -10 -10 -10 -5 0 -10 5 -10 10 0 6 5 10 10 10
6 0 10 -4 10 -10z m40 0 c0 -5 -4 -10 -10 -10 -5 0 -10 5 -10 10 0 6 5 10 10
10 6 0 10 -4 10 -10z m40 0 c0 -5 -4 -10 -10 -10 -5 0 -10 5 -10 10 0 6 5 10
10 10 6 0 10 -4 10 -10z m-240 -20 c0 -5 -4 -10 -10 -10 -5 0 -10 5 -10 10 0
6 5 10 10 10 6 0 10 -4 10 -10z"/>
<path d="M5105 6730 c-4 -6 6 -27 21 -47 15 -20 31 -52 35 -72 25 -115 40
-175 45 -180 8 -8 171 -14 189 -7 12 4 11 11 -6 41 -12 19 -25 35 -30 35 -4 0
-15 15 -24 33 -21 43 -88 114 -150 158 -70 49 -73 51 -80 39z"/>
<path d="M5895 6290 c-3 -5 -1 -10 4 -10 6 0 11 5 11 10 0 6 -2 10 -4 10 -3 0
-8 -4 -11 -10z"/>
<path d="M5927 6265 c3 -8 9 -12 14 -9 12 7 11 11 -5 17 -10 4 -13 1 -9 -8z"/>
<path d="M5971 6238 c5 -10 11 -18 12 -18 2 0 3 8 4 18 1 10 -5 19 -12 19 -10
0 -11 -5 -4 -19z"/>
<path d="M6355 5450 c-8 -13 4 -32 16 -25 12 8 12 35 0 35 -6 0 -13 -4 -16
-10z"/>
<path d="M5395 4070 c-4 -6 1 -24 9 -42 9 -17 16 -39 16 -49 0 -10 5 -21 10
-24 6 -3 10 -49 10 -103 0 -79 -5 -110 -25 -167 -14 -38 -32 -79 -40 -91 -27
-41 22 -49 54 -8 24 31 65 149 58 168 -7 16 13 86 24 86 16 0 69 -142 69 -187
0 -18 6 -23 24 -23 14 0 28 5 31 10 7 11 -24 105 -58 180 -23 50 -105 192
-116 200 -3 3 -14 17 -24 33 -18 28 -32 34 -42 17z"/>
<path d="M4367 3663 c3 -7 9 -10 14 -7 14 8 11 21 -5 21 -8 0 -12 -6 -9 -14z"/>
<path d="M4407 3643 c3 -7 9 -10 14 -7 14 8 11 21 -5 21 -8 0 -12 -6 -9 -14z"/>
<path d="M4067 3283 c3 -7 9 -10 14 -7 14 8 11 21 -5 21 -8 0 -12 -6 -9 -14z"/>
<path d="M4115 3270 c-3 -5 -2 -10 4 -10 5 0 13 5 16 10 3 6 2 10 -4 10 -5 0
-13 -4 -16 -10z"/>
<path d="M4342 2115 c-40 -45 -49 -92 -27 -138 33 -69 112 -121 211 -137 68
-11 85 -2 115 65 25 53 24 74 -5 116 -20 29 -46 45 -131 83 -58 25 -112 46
-119 46 -8 0 -28 -16 -44 -35z"/>
</g>
</svg>
